<?xml version="1.0" standalone="no"?>
<!DOCTYPE svg PUBLIC "-//W3C//DTD SVG 20010904//EN"
 "http://www.w3.org/TR/2001/REC-SVG-20010904/DTD/svg10.dtd">
<svg version="1.0" xmlns="http://www.w3.org/2000/svg"
 width="900.000000pt" height="900.000000pt" viewBox="0 0 900.000000 900.000000"
 preserveAspectRatio="xMidYMid meet">
<metadata>
Created by potrace 1.14, written by Peter Selinger 2001-2017
</metadata>
<g transform="translate(0.000000,900.000000) scale(0.100000,-0.100000)"
fill="#000000" stroke="none">
<path d="M6580 7232 c-132 -56 -363 -176 -496 -259 -286 -178 -506 -355 -770
-618 -264 -264 -352 -366 -574 -664 l-110 -148 -113 -6 c-423 -23 -776 -219
-1012 -562 -56 -81 -48 -87 77 -59 104 23 298 44 353 38 177 -19 271 -37 289
-55 3 -2 -35 -60 -85 -127 -49 -67 -89 -127 -89 -131 0 -13 103 -99 180 -152
36 -24 70 -48 77 -54 7 -5 36 -27 65 -48 29 -21 83 -60 120 -87 37 -28 71 -50
75 -50 4 0 19 -9 33 -20 39 -31 61 -24 112 33 26 28 73 81 106 116 l60 64 28
-44 c95 -151 143 -314 151 -517 4 -73 9 -135 13 -137 11 -7 149 141 202 218
140 200 208 412 208 646 0 105 -19 253 -41 319 -11 34 -11 35 53 101 175 178
408 468 580 721 304 446 518 947 597 1400 16 93 17 121 3 119 -4 0 -45 -17
-92 -37z m-114 -283 c-12 -72 -78 -285 -123 -394 -226 -549 -585 -1061 -1143
-1626 -179 -182 -553 -519 -575 -519 -14 0 -150 94 -160 110 -8 13 9 39 62
102 21 25 63 75 93 113 53 65 130 158 210 255 21 25 59 72 86 105 83 104 178
220 184 225 4 3 37 43 75 90 87 108 338 413 345 420 3 3 23 28 45 55 21 28 42
52 45 55 3 3 22 26 41 52 20 25 56 70 81 100 51 60 125 149 243 294 44 54 125
152 180 219 55 67 115 140 133 162 18 23 43 53 55 67 12 14 45 55 72 90 28 36
52 65 54 65 2 1 1 -17 -3 -40z"/>
<path d="M3429 6083 c-268 -133 -479 -298 -658 -511 -248 -299 -386 -601 -457
-1007 -25 -139 -25 -440 -1 -585 39 -232 89 -393 183 -590 254 -529 737 -927
1304 -1073 198 -51 281 -61 510 -61 266 0 430 26 645 99 119 41 290 119 399
183 163 96 400 304 524 460 341 428 503 983 437 1493 -27 212 -86 441 -121
476 -17 18 -18 21 5 -62 47 -170 55 -242 55 -475 0 -208 -2 -235 -27 -355
-108 -507 -383 -918 -802 -1199 -287 -193 -613 -298 -970 -313 -633 -26 -1250
280 -1610 798 -221 319 -335 684 -335 1075 0 504 192 965 550 1324 128 129
231 207 428 324 34 21 62 39 62 42 0 12 -38 -1 -121 -43z"/>
<path d="M4032 4568 c-19 -26 -103 -230 -99 -243 3 -7 68 -56 144 -110 76 -54
166 -120 200 -147 35 -26 71 -48 81 -48 17 0 210 132 224 153 4 6 5 14 3 18
-3 3 -69 52 -147 109 -79 57 -198 143 -265 192 -66 48 -123 88 -126 88 -2 0
-9 -6 -15 -12z"/>
<path d="M3877 4128 c-25 -40 -118 -197 -207 -348 -90 -151 -188 -318 -220
-370 -111 -186 -131 -223 -126 -237 5 -12 8 -12 19 -1 25 24 213 194 408 368
46 41 113 102 149 136 36 33 125 113 198 178 72 65 132 123 132 129 -1 7 -23
28 -51 47 -28 19 -92 65 -142 102 -51 37 -97 68 -104 68 -6 0 -32 -33 -56 -72z"/>
</g>
</svg>
